<?xml version="1.0" standalone="no"?>
<!DOCTYPE svg PUBLIC "-//W3C//DTD SVG 20010904//EN"
 "http://www.w3.org/TR/2001/REC-SVG-20010904/DTD/svg10.dtd">
<svg version="1.0" xmlns="http://www.w3.org/2000/svg"
 width="500.000000pt" height="500.000000pt" viewBox="0 0 500.000000 500.000000"
 preserveAspectRatio="xMidYMid meet">

<g transform="translate(0.000000,500.000000) scale(0.100000,-0.100000)"
fill="#000000" stroke="none">
<path d="M2307 4005 c-438 -71 -807 -303 -980 -615 -50 -91 -85 -202 -93 -297
-6 -75 -9 -82 -30 -87 -33 -9 -89 -60 -104 -96 -7 -18 -10 -50 -7 -77 4 -37 1
-52 -15 -74 -14 -19 -20 -43 -20 -78 0 -58 16 -91 70 -138 l37 -32 -32 -33
c-46 -47 -65 -97 -50 -129 15 -29 58 -37 77 -14 7 8 20 29 29 46 9 17 28 39
43 47 24 14 32 15 60 3 124 -51 143 -55 253 -55 131 0 188 15 275 74 91 62
137 80 206 80 77 0 111 -12 201 -71 97 -63 182 -84 333 -83 142 1 216 19 317
80 105 64 138 76 212 76 79 0 101 -8 194 -69 92 -60 161 -83 267 -90 93 -6
177 10 263 49 48 22 48 22 84 2 24 -12 42 -32 51 -57 10 -24 24 -40 38 -43 87
-22 97 77 15 154 -34 32 -35 34 -16 44 38 22 73 65 84 103 13 47 -2 126 -29
150 -15 14 -17 22 -8 47 22 63 -33 148 -119 184 -31 14 -33 17 -33 67 -1 70
-31 201 -64 272 -48 106 -163 252 -261 333 -190 155 -411 259 -668 313 -133
28 -447 36 -580 14z m503 -110 c126 -21 238 -51 332 -90 337 -142 591 -414
628 -676 5 -35 10 -67 10 -71 0 -5 -549 -8 -1221 -8 l-1221 0 7 63 c9 82 20
117 67 208 91 178 260 335 480 445 137 69 251 104 428 133 94 15 386 12 490
-4z m-1295 -972 c-36 -83 -38 -98 -24 -128 28 -60 99 -34 99 37 0 18 12 39 34
61 31 31 40 34 111 40 112 10 1660 7 1719 -2 59 -10 106 -54 106 -99 0 -71 68
-98 97 -38 15 32 15 38 -1 85 -9 27 -16 52 -16 55 0 3 36 6 80 6 82 0 137 -17
183 -58 27 -24 22 -61 -10 -67 -16 -4 -73 -27 -128 -53 -89 -42 -109 -47 -182
-51 -96 -4 -189 20 -263 67 -98 61 -148 76 -250 76 -107 0 -187 -24 -243 -74
-93 -81 -180 -81 -233 0 -33 49 -66 54 -88 12 -47 -90 -131 -94 -238 -10 -54
42 -115 66 -190 74 -84 8 -172 -17 -277 -80 -139 -84 -257 -88 -418 -12 -55
25 -111 46 -125 46 -14 0 -36 9 -49 19 -32 27 -19 48 52 83 48 24 65 27 158
28 94 0 103 -1 96 -17z m1615 -174 c25 -5 75 -28 112 -50 190 -115 362 -125
556 -35 101 47 139 55 160 34 15 -15 15 -48 -1 -69 -11 -15 -76 -51 -217 -122
-60 -29 -73 -32 -160 -32 -102 0 -142 14 -246 86 -78 53 -141 72 -239 73 -107
1 -169 -17 -265 -78 -100 -64 -115 -69 -242 -74 -146 -6 -186 4 -308 73 -156
88 -241 103 -364 65 -36 -12 -95 -41 -131 -65 -78 -54 -121 -72 -184 -81 -66
-9 -178 12 -226 41 -22 13 -62 37 -88 52 -91 52 -112 69 -121 96 -8 21 -6 31
5 42 20 20 101 0 195 -49 84 -43 183 -59 287 -46 66 8 125 32 267 110 46 25
66 30 125 30 75 0 95 -9 185 -78 48 -35 124 -62 179 -62 20 0 59 11 88 24 l51
24 48 -24 c52 -26 119 -31 175 -13 19 7 68 35 109 62 103 70 163 86 250 66z"/>
<path d="M2270 3784 c0 -17 22 -14 28 4 2 7 -3 12 -12 12 -9 0 -16 -7 -16 -16z"/>
<path d="M2740 3776 c0 -8 4 -17 9 -20 11 -7 33 18 24 27 -12 12 -33 7 -33 -7z"/>
<path d="M2467 3752 c-36 -39 -11 -102 39 -102 29 0 64 33 64 60 0 27 -35 60
-63 60 -13 0 -31 -8 -40 -18z"/>
<path d="M2905 3716 c-30 -30 -32 -57 -7 -79 21 -19 54 -22 83 -7 22 12 27 71
7 88 -31 24 -57 23 -83 -2z"/>
<path d="M2065 3706 c-21 -32 -17 -54 16 -78 20 -15 30 -17 51 -9 65 25 54
103 -14 109 -30 3 -40 -1 -53 -22z"/>
<path d="M1852 3538 c-25 -13 -37 -46 -27 -77 8 -25 48 -37 84 -25 20 7 27 17
29 45 4 51 -39 79 -86 57z"/>
<path d="M2282 3538 c-25 -13 -37 -46 -27 -77 8 -25 48 -37 84 -25 20 7 27 17
29 45 4 51 -39 79 -86 57z"/>
<path d="M2682 3534 c-18 -12 -22 -24 -20 -52 2 -30 8 -38 31 -46 63 -22 113
48 68 93 -25 25 -49 27 -79 5z"/>
<path d="M3101 3537 c-56 -28 -42 -100 20 -105 67 -6 94 57 43 97 -31 24 -32
25 -63 8z"/>
<path d="M3236 3524 c-3 -9 -6 -25 -6 -36 0 -20 1 -21 20 -3 23 21 27 55 6 55
-8 0 -17 -7 -20 -16z"/>
<path d="M1616 3314 c-9 -8 -16 -30 -16 -48 0 -26 6 -35 27 -45 53 -24 104 20
83 74 -14 37 -66 47 -94 19z"/>
<path d="M2072 3314 c-45 -31 -19 -104 37 -104 55 0 80 61 41 100 -24 24 -48
25 -78 4z"/>
<path d="M2900 3310 c-53 -53 13 -126 81 -90 28 15 26 74 -3 94 -30 21 -54 20
-78 -4z"/>
<path d="M3427 3312 c-22 -24 -21 -65 1 -85 38 -35 92 -6 92 48 0 52 -59 75
-93 37z"/>
<path d="M2467 3302 c-48 -52 19 -116 84 -82 13 7 19 21 19 45 0 24 -6 38 -19
45 -30 15 -66 12 -84 -8z"/>
<path d="M1470 3184 c-13 -32 -13 -64 -1 -64 13 0 18 9 26 53 8 43 -10 52 -25
11z"/>
<path d="M3620 3191 c0 -11 5 -32 10 -47 15 -37 31 -18 22 25 -8 38 -32 55
-32 22z"/>
<path d="M1588 3153 c-71 -6 -58 -23 17 -23 62 0 84 11 49 24 -9 3 -16 5 -17
4 -1 -1 -23 -3 -49 -5z"/>
<path d="M3480 3140 c0 -5 23 -10 50 -10 28 0 50 5 50 10 0 6 -22 10 -50 10
-27 0 -50 -4 -50 -10z"/>
<path d="M1316 2289 c-122 -29 -175 -173 -97 -261 23 -26 38 -32 89 -39 59 -6
65 -10 120 -66 63 -66 105 -83 193 -83 69 1 122 25 179 85 53 55 88 75 130 75
42 0 65 -13 131 -76 66 -62 113 -84 183 -84 84 0 124 17 190 80 72 68 93 80
141 80 47 0 80 -18 130 -70 116 -122 298 -120 401 6 41 50 92 70 148 60 27 -5
51 -22 88 -62 65 -68 122 -97 193 -96 73 1 139 32 195 93 38 41 54 51 89 56
60 8 107 56 116 118 6 36 3 54 -16 92 -28 54 -60 81 -115 93 -51 12 -2436 11
-2488 -1z m2498 -118 c10 -11 16 -30 14 -42 -2 -19 -12 -25 -48 -32 -55 -11
-92 -36 -120 -82 -27 -44 -66 -65 -120 -65 -54 0 -88 19 -125 69 -42 57 -112
91 -189 91 -79 -1 -133 -25 -182 -85 -48 -57 -80 -75 -136 -75 -55 0 -91 19
-139 74 -53 59 -110 86 -185 86 -94 0 -129 -15 -192 -80 -61 -63 -92 -80 -148
-80 -48 0 -70 13 -131 76 -63 65 -106 84 -187 84 -79 -1 -131 -24 -179 -84
-45 -55 -82 -76 -132 -76 -50 0 -71 13 -135 81 -52 55 -59 59 -101 59 -47 0
-89 21 -89 46 0 8 9 23 20 34 20 20 33 20 1253 20 1204 0 1234 0 1251 -19z"/>
<path d="M1350 1830 c-18 -18 -20 -33 -20 -132 0 -123 18 -224 48 -284 30 -59
109 -131 182 -167 l65 -32 935 0 935 0 60 28 c111 52 198 162 224 285 6 29 11
105 11 167 0 102 -2 117 -20 135 -24 24 -38 25 -68 4 -18 -12 -22 -25 -22 -65
l0 -49 -1120 0 -1120 0 0 45 c0 47 -25 85 -55 85 -8 0 -24 -9 -35 -20z m2326
-257 c-22 -124 -80 -204 -171 -236 -47 -16 -111 -17 -960 -15 l-910 3 -41 22
c-75 40 -135 128 -150 221 l-7 42 1123 0 1122 0 -6 -37z"/>
<path d="M1565 1500 c-4 -6 -3 -16 3 -22 6 -6 12 -6 17 2 4 6 3 16 -3 22 -6 6
-12 6 -17 -2z"/>
<path d="M3530 1490 c0 -5 7 -10 15 -10 8 0 15 5 15 10 0 6 -7 10 -15 10 -8 0
-15 -4 -15 -10z"/>
<path d="M3448 1444 c-48 -24 -62 -44 -33 -44 27 0 95 40 95 55 0 20 -6 19
-62 -11z"/>
<path d="M1610 1449 c0 -15 89 -52 108 -44 13 5 7 12 -28 30 -48 26 -80 31
-80 14z"/>
<path d="M1787 1424 c-10 -11 3 -24 24 -24 10 0 19 7 19 15 0 15 -31 21 -43 9z"/>
<path d="M2416 1422 c-3 -6 -1 -14 5 -17 15 -10 25 3 12 16 -7 7 -13 7 -17 1z"/>
<path d="M2506 1421 c-4 -5 -2 -12 3 -15 5 -4 12 -2 15 3 4 5 2 12 -3 15 -5 4
-12 2 -15 -3z"/>
<path d="M2580 1416 c0 -9 5 -16 10 -16 6 0 10 4 10 9 0 6 -4 13 -10 16 -5 3
-10 -1 -10 -9z"/>
<path d="M2665 1419 c-10 -15 3 -25 16 -12 7 7 7 13 1 17 -6 3 -14 1 -17 -5z"/>
<path d="M3040 1415 c0 -8 9 -15 20 -15 11 0 20 7 20 15 0 8 -9 15 -20 15 -11
0 -20 -7 -20 -15z"/>
<path d="M3157 1423 c-15 -15 -5 -23 28 -23 24 0 35 5 35 15 0 15 -50 22 -63
8z"/>
<path d="M3297 1424 c-10 -11 3 -24 24 -24 10 0 19 7 19 15 0 15 -31 21 -43 9z"/>
<path d="M1937 1033 c-4 -3 -7 -82 -7 -174 0 -193 -6 -183 104 -174 97 8 108
11 134 35 29 27 30 97 3 131 -17 22 -17 27 -5 44 20 27 17 78 -6 103 -11 11
-37 26 -57 31 -42 12 -156 15 -166 4z m163 -88 c20 -25 -5 -45 -56 -45 -42 0
-44 1 -44 30 0 29 2 30 44 30 26 0 48 -6 56 -15z m4 -134 c29 -32 11 -51 -50
-51 l-54 0 0 35 c0 35 0 35 43 35 30 0 49 -6 61 -19z"/>
<path d="M2498 1024 c-15 -8 -32 -23 -38 -34 -14 -27 -12 -82 5 -103 12 -17
10 -23 -21 -53 -47 -47 -47 -93 -1 -139 42 -42 96 -52 161 -30 42 14 50 15 64
2 12 -10 24 -12 40 -6 26 10 29 35 6 60 -15 16 -14 20 3 49 18 32 18 32 -7 52
l-24 20 -23 -26 c-12 -14 -24 -26 -26 -26 -3 0 -12 11 -21 25 -16 24 -16 27 7
58 35 46 40 71 23 106 -31 59 -90 77 -148 45z m66 -60 c20 -7 21 -38 3 -53
-21 -17 -55 23 -37 44 14 17 13 17 34 9z m17 -227 c-14 -14 -73 -4 -85 15 -8
13 -6 22 9 38 l19 20 33 -32 c19 -18 29 -36 24 -41z"/>
<path d="M2984 1021 c-17 -10 -36 -33 -43 -50 -26 -61 9 -113 97 -144 64 -23
79 -39 57 -61 -21 -21 -52 -20 -97 3 -37 18 -37 18 -59 -5 -26 -28 -19 -40 35
-65 57 -26 115 -24 157 4 80 54 73 132 -16 174 -87 41 -98 48 -102 60 -3 7 6
18 20 24 18 8 32 7 62 -6 38 -15 40 -15 57 7 22 29 20 37 -22 60 -44 23 -107
23 -146 -1z"/>
</g>
</svg>
